<svg id="visual" viewBox="0 0 1920 900" width="1920" height="900" xmlns="http://www.w3.org/2000/svg" xmlns:xlink="http://www.w3.org/1999/xlink" version="1.1"><g><g transform="translate(929 714)"><path d="M0 -143.3L124.1 -71.6L124.1 71.6L0 143.3L-124.1 71.6L-124.1 -71.6Z" fill="#E2ECFF"></path></g><g transform="translate(709 120)"><path d="M0 -102L88.3 -51L88.3 51L0 102L-88.3 51L-88.3 -51Z" fill="#E2ECFF"></path></g><g transform="translate(1199 197)"><path d="M0 -96L83.1 -48L83.1 48L0 96L-83.1 48L-83.1 -48Z" fill="#E2ECFF"></path></g><g transform="translate(1403 503)"><path d="M0 -125L108.3 -62.5L108.3 62.5L0 125L-108.3 62.5L-108.3 -62.5Z" fill="#E2ECFF"></path></g><g transform="translate(1738 225)"><path d="M0 -58L50.2 -29L50.2 29L0 58L-50.2 29L-50.2 -29Z" fill="#E2ECFF"></path></g><g transform="translate(1709 587)"><path d="M0 -91L78.8 -45.5L78.8 45.5L0 91L-78.8 45.5L-78.8 -45.5Z" fill="#E2ECFF"></path></g><g transform="translate(586 880)"><path d="M0 -140L121.2 -70L121.2 70L0 140L-121.2 70L-121.2 -70Z" fill="#E2ECFF"></path></g><g transform="translate(65 27)"><path d="M0 -115L99.6 -57.5L99.6 57.5L0 115L-99.6 57.5L-99.6 -57.5Z" fill="#E2ECFF"></path></g><g transform="translate(339 214)"><path d="M0 -61L52.8 -30.5L52.8 30.5L0 61L-52.8 30.5L-52.8 -30.5Z" fill="#E2ECFF"></path></g><g transform="translate(500 495)"><path d="M0 -125L108.3 -62.5L108.3 62.5L0 125L-108.3 62.5L-108.3 -62.5Z" fill="#E2ECFF"></path></g><g transform="translate(14 513)"><path d="M0 -116L100.5 -58L100.5 58L0 116L-100.5 58L-100.5 -58Z" fill="#E2ECFF"></path></g></g></svg>